<?xml version="1.0" encoding="UTF-8" standalone="no"?>
<svg width="104px" height="104px" viewBox="0 0 104 104" version="1.1" xmlns="http://www.w3.org/2000/svg" xmlns:xlink="http://www.w3.org/1999/xlink">
    <!-- Generator: Sketch 39.1 (31720) - http://www.bohemiancoding.com/sketch -->
    <title>logo_white</title>
    <desc>Created with Sketch.</desc>
    <defs></defs>
    <g id="Design" stroke="none" stroke-width="1" fill="none" fill-rule="evenodd">
        <g id="logo_white">
            <circle id="Oval-4" fill="#FFFFFF" cx="52" cy="52" r="52"></circle>
            <g id="maininmain_logo" transform="translate(14.857143, 15.682540)" fill="#0C0E0F">
                <g id="Group-5">
                    <path d="M41.8649057,9.43780773 C41.8649057,9.55133872 41.7667925,9.64945193 41.6392453,9.64945193 L40.1156873,9.64945193 C39.9881402,9.64945193 39.890027,9.55133872 39.890027,9.43780773 L39.890027,3.56783468 L37.8436658,7.13775382 C37.7581671,7.29333333 37.6880863,7.3634142 37.5044744,7.3634142 L36.334124,7.3634142 C36.1645283,7.3634142 36.0790296,7.29333333 35.9949326,7.13775382 L33.8925067,3.56783468 L33.8925067,9.43780773 C33.8925067,9.55133872 33.7929919,9.64945193 33.6668464,9.64945193 L32.1432884,9.64945193 C32.0157412,9.64945193 31.917628,9.55133872 31.917628,9.43780773 L31.917628,0.251608266 C31.917628,0.139478886 32.0157412,0.0399640611 32.1432884,0.0399640611 L33.7509434,0.0399640611 C33.9205391,0.0399640611 34.0340701,0.0693980234 34.1461995,0.265624438 L36.883558,5.02131177 L39.6349326,0.265624438 C39.7344474,0.0693980234 39.8465768,0.0399640611 40.0161725,0.0399640611 L41.6392453,0.0399640611 C41.7667925,0.0399640611 41.8649057,0.139478886 41.8649057,0.251608266 L41.8649057,9.43780773" id="Fill-1"></path>
                    <path d="M31.9316442,63.9354897 C31.9316442,63.8219587 32.031159,63.7238455 32.1573046,63.7238455 L33.6822642,63.7238455 C33.8084097,63.7238455 33.9079245,63.8219587 33.9079245,63.9354897 L33.9079245,69.8054627 L35.9542857,66.2355436 C36.0383827,66.0799641 36.1084636,66.0098832 36.2920755,66.0098832 L37.4638275,66.0098832 C37.6334232,66.0098832 37.7175202,66.0799641 37.8016173,66.2355436 L39.9040431,69.8054627 L39.9040431,63.9354897 C39.9040431,63.8219587 40.003558,63.7238455 40.1311051,63.7238455 L41.6546631,63.7238455 C41.7808086,63.7238455 41.8803235,63.8219587 41.8803235,63.9354897 L41.8803235,73.1216891 C41.8803235,73.2338185 41.7808086,73.3333333 41.6546631,73.3333333 L40.0456065,73.3333333 C39.8760108,73.3333333 39.7638814,73.305301 39.6503504,73.107673 L36.9129919,68.3519856 L34.1616173,73.107673 C34.063504,73.305301 33.949973,73.3333333 33.7803774,73.3333333 L32.1573046,73.3333333 C32.031159,73.3333333 31.9316442,73.2338185 31.9316442,73.1216891 L31.9316442,63.9354897" id="Fill-3"></path>
                    <path d="M0,35.6690746 C0,35.5415274 0.0995148248,35.4560288 0.211644205,35.4560288 L9.39784367,35.4560288 C9.51137466,35.4560288 9.60948787,35.5415274 9.60948787,35.6690746 L9.60948787,37.2627134 C9.60948787,37.3902606 9.51137466,37.4883738 9.39784367,37.4883738 L0.211644205,37.4883738 C0.0995148248,37.4883738 0,37.3902606 0,37.2627134 L0,35.6690746" id="Fill-4"></path>
                </g>
                <path d="M73.8722372,37.2627134 C73.8722372,37.3902606 73.7727224,37.4743576 73.660593,37.4743576 L64.4743935,37.4743576 C64.3608625,37.4743576 64.2627493,37.3902606 64.2627493,37.2627134 L64.2627493,35.6690746 C64.2627493,35.5415274 64.3608625,35.4434142 64.4743935,35.4434142 L73.660593,35.4434142 C73.7727224,35.4434142 73.8722372,35.5415274 73.8722372,35.6690746 L73.8722372,37.2627134" id="Fill-6"></path>
                <path d="M61.048841,64.3405571 C61.1287332,64.4204492 61.1287332,64.5592093 61.048841,64.6391015 L59.9709973,65.7169452 C59.8911051,65.7968374 59.752345,65.7968374 59.6724528,65.7169452 L53.1759569,59.2218509 C53.0960647,59.1419587 53.0960647,59.0017969 53.1759569,58.9219048 L54.1739084,57.9253549 C54.2930458,57.8048158 54.3841509,57.7543576 54.6028032,57.7950045 L62.1168733,58.7831447 L57.8657682,54.5320395 C57.785876,54.4521473 57.785876,54.3119856 57.8657682,54.2320934 L58.9338005,53.1654627 C59.023504,53.0757592 59.1636658,53.0757592 59.2421563,53.1542498 L65.7386523,59.6507457 C65.8185445,59.7306379 65.8185445,59.8707996 65.728841,59.9605031 L64.7308895,60.9584546 C64.6103504,61.0775921 64.5108356,61.0972147 64.300593,61.0677808 L56.7879245,60.0796406 L61.048841,64.3405571" id="Fill-7"></path>
                <path d="M12.4463612,9.04255166 C12.3678706,8.96265948 12.3678706,8.82249775 12.4463612,8.74260557 L13.5242049,7.6647619 C13.604097,7.58486972 13.7442588,7.58486972 13.8241509,7.6647619 L20.3192453,14.1612579 C20.3991375,14.24115 20.3991375,14.3799102 20.3192453,14.4598023 L19.3212938,15.4577538 C19.2021563,15.5782929 19.1124528,15.6273495 18.8923989,15.5881042 L11.3783288,14.5999641 L15.629434,18.8510692 C15.7093261,18.9309614 15.7093261,19.0697215 15.629434,19.1496137 L14.5628032,20.217646 C14.4730997,20.3073495 14.332938,20.3073495 14.2530458,20.2274573 L7.75654987,13.732363 C7.6780593,13.6524708 7.6780593,13.5123091 7.7677628,13.4226056 L8.76571429,12.4246541 C8.88485175,12.3055166 8.98436658,12.285894 9.19320755,12.3153279 L16.7072776,13.3034681 L12.4463612,9.04255166" id="Fill-8"></path>
                <path d="M54.6420485,15.5446541 C54.4808625,15.6231447 54.3519137,15.5937107 54.222965,15.4647619 L53.105876,14.3462713 C53.0049596,14.2467565 53.0147709,14.157053 53.0848518,14.0869721 C53.1142857,14.0575382 53.1549326,14.0379155 53.2039892,14.00708 L61.97531,9.88632525 C62.125283,9.79662174 62.2444205,9.83726864 62.3747709,9.96621743 L63.5619407,11.1547889 C63.6908895,11.2837376 63.7315364,11.4028751 63.6418329,11.5528482 L59.4902426,20.294735 C59.4608086,20.3437916 59.441186,20.3830368 59.4103504,20.4138724 C59.3402695,20.4825517 59.2519677,20.4937646 59.1510512,20.3928482 L58.0045283,19.2449236 C57.8643666,19.1061635 57.8349326,18.9772147 57.9246361,18.8272417 L58.7221563,17.2097754 L56.2581132,14.7457323 L54.6420485,15.5446541 L54.6420485,15.5446541 Z M61.2072237,12.2915004 L57.7648518,13.9580234 L59.5210782,15.7142498 L61.2072237,12.2915004 L61.2072237,12.2915004 Z" id="Fill-9"></path>
                <path d="M19.1222642,57.3815274 C19.2820485,57.3016352 19.4123989,57.3324708 19.5413477,57.4614196 L20.6598383,58.5785085 C20.7593531,58.679425 20.7481402,58.7691285 20.6794609,58.8392093 C20.6486253,58.8686433 20.6093801,58.8882659 20.5589218,58.9191015 L11.7890027,63.0398562 C11.6390296,63.1295597 11.5198922,63.0889128 11.3895418,62.9599641 L10.202372,61.7727942 C10.0720216,61.6424438 10.0327763,61.5219048 10.1224798,61.3733333 L14.2740701,52.6328482 C14.303504,52.5823899 14.3231267,52.5431447 14.3539623,52.5137107 C14.4226415,52.4436298 14.512345,52.4324169 14.6132615,52.5319317 L15.7597844,53.6798562 C15.8999461,53.820018 15.9293801,53.9503684 15.8396765,54.0989398 L15.0421563,55.7150045 L17.5061995,58.1804492 L19.1222642,57.3815274 L19.1222642,57.3815274 Z M12.5570889,60.634681 L15.9994609,58.9681581 L14.2432345,57.2119317 L12.5570889,60.634681 L12.5570889,60.634681 Z" id="Fill-10"></path>
            </g>
        </g>
    </g>
</svg>