<?xml version="1.0" encoding="UTF-8" standalone="no"?>
<svg width="37px" height="37px" viewBox="0 0 37 37" version="1.1" xmlns="http://www.w3.org/2000/svg" xmlns:xlink="http://www.w3.org/1999/xlink">
    <!-- Generator: Sketch 39.1 (31720) - http://www.bohemiancoding.com/sketch -->
    <title>logo_black</title>
    <desc>Created with Sketch.</desc>
    <defs></defs>
    <g id="Design" stroke="none" stroke-width="1" fill="none" fill-rule="evenodd">
        <g id="Home-(Menu-Transf)" transform="translate(-622.000000, -12.000000)">
            <g id="logo_black" transform="translate(622.000000, 12.000000)">
                <circle id="Oval-4" fill="#000000" cx="18.5" cy="18.5" r="18.5"></circle>
                <g id="maininmain_logo" transform="translate(5.285714, 5.285714)" fill="#FFFFFF">
                    <g id="Group-5">
                        <path d="M14.8942453,3.3576816 C14.8942453,3.39807243 14.8593396,3.43297809 14.8139623,3.43297809 L14.2719272,3.43297809 C14.2265499,3.43297809 14.1916442,3.39807243 14.1916442,3.3576816 L14.1916442,1.2693258 L13.4636119,2.53939319 C13.4331941,2.59474359 13.4082615,2.6196762 13.342938,2.6196762 L12.9265633,2.6196762 C12.8662264,2.6196762 12.8358086,2.59474359 12.8058895,2.53939319 L12.0579111,1.2693258 L12.0579111,3.3576816 C12.0579111,3.39807243 12.0225067,3.43297809 11.977628,3.43297809 L11.435593,3.43297809 C11.3902156,3.43297809 11.35531,3.39807243 11.35531,3.3576816 L11.35531,0.0895144792 C11.35531,0.0496222959 11.3902156,0.0142179833 11.435593,0.0142179833 L12.0075472,0.0142179833 C12.0678841,0.0142179833 12.1082749,0.0246896814 12.1481671,0.0945010021 L13.122035,1.78642823 L14.1008895,0.0945010021 C14.1362938,0.0246896814 14.176186,0.0142179833 14.2365229,0.0142179833 L14.8139623,0.0142179833 C14.8593396,0.0142179833 14.8942453,0.0496222959 14.8942453,0.0895144792 L14.8942453,3.3576816" id="Fill-1"></path>
                        <path d="M11.3602965,22.74628 C11.3602965,22.7058891 11.3957008,22.6709835 11.4405795,22.6709835 L11.9831132,22.6709835 C12.0279919,22.6709835 12.0633962,22.7058891 12.0633962,22.74628 L12.0633962,24.8346358 L12.7914286,23.5645684 C12.8213477,23.509218 12.8462803,23.4842854 12.9116038,23.4842854 L13.3284771,23.4842854 C13.388814,23.4842854 13.4187332,23.509218 13.4486523,23.5645684 L14.1966307,24.8346358 L14.1966307,22.74628 C14.1966307,22.7058891 14.232035,22.6709835 14.2774124,22.6709835 L14.8194474,22.6709835 C14.8643261,22.6709835 14.8997305,22.7058891 14.8997305,22.74628 L14.8997305,26.0144471 C14.8997305,26.0543393 14.8643261,26.0897436 14.8194474,26.0897436 L14.2469946,26.0897436 C14.1866577,26.0897436 14.1467655,26.0797705 14.1063747,26.0094606 L13.1325067,24.3175333 L12.1536523,26.0094606 C12.1187466,26.0797705 12.0783558,26.0897436 12.0180189,26.0897436 L11.4405795,26.0897436 C11.3957008,26.0897436 11.3602965,26.0543393 11.3602965,26.0144471 L11.3602965,22.74628" id="Fill-3"></path>
                        <path d="M0,12.6899592 C0,12.6445819 0.0354043127,12.6141641 0.075296496,12.6141641 L3.34346361,12.6141641 C3.38385445,12.6141641 3.41876011,12.6445819 3.41876011,12.6899592 L3.41876011,13.2569269 C3.41876011,13.3023042 3.38385445,13.3372099 3.34346361,13.3372099 L0.075296496,13.3372099 C0.0354043127,13.3372099 0,13.3023042 0,13.2569269 L0,12.6899592" id="Fill-4"></path>
                    </g>
                    <path d="M26.281469,13.2569269 C26.281469,13.3023042 26.2460647,13.3322234 26.2061725,13.3322234 L22.9380054,13.3322234 C22.8976146,13.3322234 22.8627089,13.3023042 22.8627089,13.2569269 L22.8627089,12.6899592 C22.8627089,12.6445819 22.8976146,12.6096762 22.9380054,12.6096762 L26.2061725,12.6096762 C26.2460647,12.6096762 26.281469,12.6445819 26.281469,12.6899592 L26.281469,13.2569269" id="Fill-6"></path>
                    <path d="M21.7192992,22.8903905 C21.7477224,22.9188137 21.7477224,22.9681802 21.7192992,22.9966034 L21.3358356,23.380067 C21.3074124,23.4084902 21.2580458,23.4084902 21.2296226,23.380067 L18.9183693,21.0693123 C18.8899461,21.0408891 18.8899461,20.9910239 18.9183693,20.9626007 L19.2734097,20.608059 C19.3157951,20.5651749 19.3482075,20.5472234 19.4259973,20.5616843 L22.0992722,20.9132342 L20.5868598,19.4008218 C20.5584367,19.3723986 20.5584367,19.3225333 20.5868598,19.2941102 L20.9668329,18.9146358 C20.9987466,18.882722 21.0486119,18.882722 21.0765364,18.9106466 L23.3877898,21.2218999 C23.4162129,21.2503231 23.4162129,21.3001883 23.3842992,21.3321021 L23.0292588,21.6871425 C22.9863747,21.729528 22.9509704,21.7365091 22.8761725,21.7260374 L20.2033962,21.3744875 L21.7192992,22.8903905" id="Fill-7"></path>
                    <path d="M4.42803235,3.21706165 C4.40010782,3.18863847 4.40010782,3.13877324 4.42803235,3.11035006 L4.81149596,2.72688645 C4.83991914,2.69846327 4.88978437,2.69846327 4.91820755,2.72688645 L7.22896226,5.03813982 C7.25738544,5.066563 7.25738544,5.11592957 7.22896226,5.14435275 L6.87392183,5.49939319 C6.83153639,5.54227728 6.79962264,5.55973011 6.72133423,5.54576785 L4.0480593,5.19421798 L5.5604717,6.70663038 C5.58889488,6.73505356 5.58889488,6.78442014 5.5604717,6.81284332 L5.1809973,7.19281637 C5.14908356,7.22473011 5.09921833,7.22473011 5.07079515,7.19630693 L2.75954178,4.88555222 C2.73161725,4.85712903 2.73161725,4.80726381 2.763531,4.77535006 L3.11857143,4.42030963 C3.16095687,4.37792418 3.19636119,4.37094305 3.27066038,4.38141475 L5.94393531,4.73296461 L4.42803235,3.21706165" id="Fill-8"></path>
                    <path d="M19.4399596,5.53030963 C19.3826146,5.55823416 19.3367385,5.54776246 19.2908625,5.50188645 L18.8934367,5.10396192 C18.8575337,5.06855761 18.8610243,5.03664386 18.8859569,5.01171124 C18.8964286,5.00123955 18.9108895,4.99425841 18.9283423,4.98328806 L22.0489084,3.51725033 C22.1022642,3.48533658 22.1446496,3.4997975 22.1910243,3.54567351 L22.6133827,3.96853065 C22.6592588,4.01440666 22.6737197,4.05679211 22.6418059,4.1101479 L21.1647978,7.22024224 C21.1543261,7.23769507 21.147345,7.25165734 21.1363747,7.26262769 C21.111442,7.28706165 21.080027,7.29105087 21.044124,7.2551479 L20.6362264,6.84675168 C20.5863612,6.7973851 20.5758895,6.75150909 20.6078032,6.69815329 L20.8915364,6.12270855 L20.0149057,5.24607782 L19.4399596,5.53030963 L19.4399596,5.53030963 Z M21.7756469,4.37293766 L20.5509569,4.96583523 L21.1757682,5.59064655 L21.7756469,4.37293766 L21.7756469,4.37293766 Z" id="Fill-9"></path>
                    <path d="M6.80311321,20.4145819 C6.85995957,20.3861587 6.90633423,20.397129 6.95221024,20.443005 L7.35013477,20.8404309 C7.38553908,20.8763339 7.38154987,20.9082476 7.3571159,20.9331802 C7.34614555,20.9436519 7.33218329,20.9506331 7.31423181,20.9616034 L4.19416442,22.4276412 C4.14080863,22.4595549 4.09842318,22.445094 4.05204852,22.399218 L3.62969003,21.9768595 C3.58331536,21.9304848 3.5693531,21.8876007 3.60126685,21.8347436 L5.07827493,18.7251479 C5.08874663,18.7071964 5.09572776,18.6932342 5.10669811,18.6827625 C5.13113208,18.6578298 5.16304582,18.6538406 5.19894879,18.6892449 L5.60684636,19.0976412 C5.65671159,19.1475064 5.66718329,19.1938811 5.63526954,19.2467382 L5.35153639,19.8216843 L6.22816712,20.6988137 L6.80311321,20.4145819 L6.80311321,20.4145819 Z M4.46742588,21.5719538 L5.6921159,20.9790563 L5.06730458,20.3542449 L4.46742588,21.5719538 L4.46742588,21.5719538 Z" id="Fill-10"></path>
                </g>
            </g>
        </g>
    </g>
</svg>